{"accessors":[{"bufferView":0,"componentType":5123,"count":269760,"max":[44961],"min":[0],"type":"SCALAR"},{"bufferView":1,"componentType":5126,"count":44962,"max":[1.0052303075790405,0.541602611541748,1.0052309036254883],"min":[-1.0052306652069092,-0.008841409347951412,-1.0052305459976196],"type":"VEC3"},{"bufferView":2,"componentType":5126,"count":44962,"max":[0.999969482421875,1.0,0.999969482421875],"min":[-0.999969482421875,-1.0,-0.999969482421875],"type":"VEC3"},{"bufferView":3,"componentType":5126,"count":44962,"max":[0.0,1.0],"min":[0.0,1.0],"type":"VEC2"},{"bufferView":4,"componentType":5125,"count":814080,"max":[542717],"min":[0],"type":"SCALAR"},{"bufferView":5,"componentType":5126,"count":542718,"max":[0.3589164912700653,4.196958065032959,0.3921537697315216],"min":[-0.3589164614677429,3.3480544090270996,-0.392153799533844],"type":"VEC3"},{"bufferView":6,"componentType":5126,"count":542718,"max":[0.9999799132347107,1.0,0.9999755024909973],"min":[-0.9999799728393555,-1.0,-0.9999756813049316],"type":"VEC3"},{"bufferView":7,"componentType":5126,"count":542718,"max":[1.0,0.9775210618972778,0.9999916553497314,1.0],"min":[-0.9999927282333374,-0.9775294661521912,-0.9999915957450867,-1.0],"type":"VEC4"},{"bufferView":8,"componentType":5126,"count":542718,"max":[1.0000001192092896,1.0],"min":[0.0,0.047055184841156006],"type":"VEC2"},{"bufferView":9,"componentType":5125,"count":1794048,"max":[1196031],"min":[0],"type":"SCALAR"},{"bufferView":10,"componentType":5126,"count":1196032,"max":[0.8655292987823486,3.378056049346924,0.8677284121513367],"min":[-0.8655292987823486,-1.224717378616333,-0.8677284717559814],"type":"VEC3"},{"bufferView":11,"componentType":5126,"count":1196032,"max":[0.9999785423278809,1.0,0.9999849796295166],"min":[-0.9999785423278809,-1.0,-0.999984860420227],"type":"VEC3"},{"bufferView":12,"componentType":5126,"count":1196032,"max":[1.0,0.9150387048721313,0.9999923706054688,1.0],"min":[-0.9999853372573853,-0.9150387048721313,-0.9999926090240479,-1.0],"type":"VEC4"},{"bufferView":13,"componentType":5126,"count":1196032,"max":[1.0000001192092896,0.989999994635582],"min":[0.0,0.07547032833099365],"type":"VEC2"},{"bufferView":14,"componentType":5125,"count":393216,"max":[262143],"min":[0],"type":"SCALAR"},{"bufferView":15,"componentType":5126,"count":262144,"max":[0.7563437223434448,2.1312410831451416,0.7313224077224731],"min":[-0.7563437223434448,1.0528459548950195,-0.7313223481178284],"type":"VEC3"},{"bufferView":16,"componentType":5126,"count":262144,"max":[0.9999774694442749,0.33219486474990845,0.9999816417694092],"min":[-0.9999775290489197,-0.3322981595993042,-0.9999819397926331],"type":"VEC3"},{"bufferView":17,"componentType":5126,"count":262144,"max":[0.9999833703041077,0.97105473279953,0.9999839663505554,1.0],"min":[-0.9999829530715942,-0.9710546135902405,-0.9999840259552002,-1.0],"type":"VEC4"},{"bufferView":18,"componentType":5126,"count":262144,"max":[0.9503833055496216,0.8849075734615326],"min":[0.049616798758506775,0.1749100685119629],"type":"VEC2"}],"asset":{"generator":"Soft8Soft Verge3D for Blender add-on","version":"2.0"},"bufferViews":[{"buffer":0,"byteLength":539520,"byteOffset":0,"target":34963},{"buffer":0,"byteLength":539544,"byteOffset":539520,"target":34962},{"buffer":0,"byteLength":539544,"byteOffset":1079064,"target":34962},{"buffer":0,"byteLength":359696,"byteOffset":1618608,"target":34962},{"buffer":0,"byteLength":3256320,"byteOffset":1978304,"target":34963},{"buffer":0,"byteLength":6512616,"byteOffset":5234624,"target":34962},{"buffer":0,"byteLength":6512616,"byteOffset":11747240,"target":34962},{"buffer":0,"byteLength":8683488,"byteOffset":18259856,"target":34962},{"buffer":0,"byteLength":4341744,"byteOffset":26943344,"target":34962},{"buffer":0,"byteLength":7176192,"byteOffset":31285088,"target":34963},{"buffer":0,"byteLength":14352384,"byteOffset":38461280,"target":34962},{"buffer":0,"byteLength":14352384,"byteOffset":52813664,"target":34962},{"buffer":0,"byteLength":19136512,"byteOffset":67166048,"target":34962},{"buffer":0,"byteLength":9568256,"byteOffset":86302560,"target":34962},{"buffer":0,"byteLength":1572864,"byteOffset":95870816,"target":34963},{"buffer":0,"byteLength":3145728,"byteOffset":97443680,"target":34962},{"buffer":0,"byteLength":3145728,"byteOffset":100589408,"target":34962},{"buffer":0,"byteLength":4194304,"byteOffset":103735136,"target":34962},{"buffer":0,"byteLength":2097152,"byteOffset":107929440,"target":34962}],"buffers":[{"byteLength":110026592,"uri":"TESTINGCOKEGLASS.bin"}],"cameras":[{"extensions":{"S8S_v3d_camera_data":{"controls":"ORBIT","enablePan":true,"moveSpeed":1.0,"orbitMaxDistance":100.0,"orbitMaxPolarAngle":3.1415927410125732,"orbitMaxZoom":100.0,"orbitMinDistance":0.0,"orbitMinPolarAngle":0.0,"orbitMinZoom":0.009999999776482582,"orbitTarget":[0.0,0.0,-0.0],"rotateSpeed":1.0,"viewportFitInitialAspect":1.7777777777777777,"viewportFitType":"AUTO"}},"name":"Camera","perspective":{"aspectRatio":1.7777777777777777,"yfov":0.39959652046304894,"zfar":100.0,"znear":0.10000000149011612},"type":"perspective"}],"extensions":{"S8S_v3d_data":{"lights":[{"angle":0.39269909262657166,"color":[1.0,1.0,1.0],"decay":2,"distance":70.71067890890818,"intensity":5000.0,"name":"Spot.001","penumbra":0.15000000596046448,"profile":"blender","shadow":{"bias":-0.0018,"cameraFar":70.71067890890818,"cameraFov":0.7853981852531433,"cameraNear":0.05000000074505806,"enabled":true,"expBias":2.5,"mapSize":512,"radius":1.0,"slopeScaledBias":2.5},"type":"spot"},{"angle":0.39269909262657166,"color":[1.0,1.0,1.0],"decay":2,"distance":70.71067890890818,"intensity":5000.0,"name":"Spot.002","penumbra":0.15000000596046448,"profile":"blender","shadow":{"bias":-0.0018,"cameraFar":70.71067890890818,"cameraFov":0.7853981852531433,"cameraNear":0.05000000074505806,"enabled":true,"expBias":2.5,"mapSize":512,"radius":1.0,"slopeScaledBias":2.5},"type":"spot"},{"angle":0.39269909262657166,"color":[1.0,1.0,1.0],"decay":2,"distance":70.71067890890818,"intensity":5000.0,"name":"Spot.003","penumbra":0.15000000596046448,"profile":"blender","shadow":{"bias":-0.0018,"cameraFar":70.71067890890818,"cameraFov":0.7853981852531433,"cameraNear":0.05000000074505806,"enabled":true,"expBias":2.5,"mapSize":512,"radius":1.0,"slopeScaledBias":2.5},"type":"spot"},{"angle":0.39269909262657166,"color":[1.0,1.0,1.0],"decay":2,"distance":70.71067890890818,"intensity":5000.0,"name":"Spot.004","penumbra":0.15000000596046448,"profile":"blender","shadow":{"bias":-0.0018,"cameraFar":70.71067890890818,"cameraFov":0.7853981852531433,"cameraNear":0.05000000074505806,"enabled":true,"expBias":2.5,"mapSize":512,"radius":1.0,"slopeScaledBias":2.5},"type":"spot"}]}},"extensionsUsed":["S8S_v3d_texture_data","S8S_v3d_material_data","S8S_v3d_camera_data","S8S_v3d_data","S8S_v3d_mesh_data","S8S_v3d_node_data","S8S_v3d_scene_data"],"images":[{"uri":"cokewrapper.jpg"}],"materials":[{"extensions":{"S8S_v3d_material_data":{"gtaoVisible":true,"materialIndex":0,"nodeGraph":{"edges":[{"fromNode":0,"fromOutput":0,"toInput":0,"toNode":1}],"nodes":[{"inputs":[[0.8000000715255737,0.0046004559844732285,0.0,1.0],0.0,[1.0,0.20000000298023224,0.10000000149011612],[0.800000011920929,0.800000011920929,0.800000011920929,1.0],1.399999976158142,0.0,0.0,0.5,0.0,0.0,0.0,0.0,0.0,0.5,0.0,0.029999999329447746,1.4500000476837158,0.0,0.0,[0.0,0.0,0.0,1.0],1.0,1.0,[0.0,0.0,0.0],[0.0,0.0,0.0],[0.0,0.0,0.0]],"is_active_output":false,"name":"Principled BSDF","outputs":[[0,0,0,0]],"type":"BSDF_PRINCIPLED_BL"},{"inputs":[[0,0,0,0],[0,0,0,0],[0.0,0.0,0.0]],"is_active_output":true,"name":"Material Output","outputs":[],"type":"OUTPUT_MATERIAL_BL"}]},"useCastShadows":true}},"name":"Material.001"},{"extensions":{"S8S_v3d_material_data":{"gtaoVisible":true,"materialIndex":0,"nodeGraph":{"edges":[{"fromNode":0,"fromOutput":0,"toInput":0,"toNode":1},{"fromNode":2,"fromOutput":0,"toInput":0,"toNode":0}],"nodes":[{"inputs":[[0.800000011920929,0.800000011920929,0.800000011920929,1.0],0.0,[1.0,0.20000000298023224,0.10000000149011612],[0.800000011920929,0.800000011920929,0.800000011920929,1.0],1.399999976158142,0.0,0.0,0.5,0.0,0.5,0.0,0.0,0.0,0.5,0.0,0.029999999329447746,1.4500000476837158,0.0,0.0,[0.0,0.0,0.0,1.0],1.0,1.0,[0.0,0.0,0.0],[0.0,0.0,0.0],[0.0,0.0,0.0]],"is_active_output":false,"name":"Principled BSDF","outputs":[[0,0,0,0]],"type":"BSDF_PRINCIPLED_BL"},{"inputs":[[0,0,0,0],[0,0,0,0],[0.0,0.0,0.0]],"is_active_output":true,"name":"Material Output","outputs":[],"type":"OUTPUT_MATERIAL_BL"},{"inputs":[[0.0,0.0,0.0]],"is_active_output":false,"name":"Image Texture","outputs":[[0.0,0.0,0.0,0.0],0.0],"projection":"FLAT","projectionBlend":0.0,"texture":0,"type":"TEX_IMAGE_BL"}]},"useCastShadows":true}},"name":"Material.002"},{"extensions":{"S8S_v3d_material_data":{"gtaoVisible":true,"materialIndex":0,"nodeGraph":{"edges":[{"fromNode":0,"fromOutput":0,"toInput":0,"toNode":1}],"nodes":[{"inputs":[[0.800000011920929,0.800000011920929,0.800000011920929,1.0],0.0,[1.0,0.20000000298023224,0.10000000149011612],[0.800000011920929,0.800000011920929,0.800000011920929,1.0],1.399999976158142,0.0,0.0,0.5,0.0,0.0,0.0,0.0,0.0,0.5,0.0,0.029999999329447746,1.4500000476837158,1.0,0.0,[0.0,0.0,0.0,1.0],1.0,1.0,[0.0,0.0,0.0],[0.0,0.0,0.0],[0.0,0.0,0.0]],"is_active_output":false,"name":"Principled BSDF","outputs":[[0,0,0,0]],"type":"BSDF_PRINCIPLED_BL"},{"inputs":[[0,0,0,0],[0,0,0,0],[0.0,0.0,0.0]],"is_active_output":true,"name":"Material Output","outputs":[],"type":"OUTPUT_MATERIAL_BL"}]},"useCastShadows":true}},"name":"Material.012"},{"extensions":{"S8S_v3d_material_data":{"gtaoVisible":true,"materialIndex":0,"nodeGraph":{"edges":[{"fromNode":0,"fromOutput":0,"toInput":0,"toNode":1}],"nodes":[{"inputs":[[0.057999998331069946,0.02817605249583721,0.017805999144911766,1.0],0.0,[1.0,0.20000000298023224,0.10000000149011612],[0.800000011920929,0.800000011920929,0.800000011920929,1.0],1.399999976158142,0.0,0.0,0.5,0.0,0.0,0.0,0.0,0.0,0.5,0.0,0.029999999329447746,1.4500000476837158,1.0,1.0,[0.0,0.0,0.0,1.0],1.0,1.0,[0.0,0.0,0.0],[0.0,0.0,0.0],[0.0,0.0,0.0]],"is_active_output":false,"name":"Principled BSDF","outputs":[[0,0,0,0]],"type":"BSDF_PRINCIPLED_BL"},{"inputs":[[0,0,0,0],[0,0,0,0],[0.0,0.0,0.0]],"is_active_output":true,"name":"Material Output","outputs":[],"type":"OUTPUT_MATERIAL_BL"}]},"useCastShadows":true}},"name":"Material.013"},{"extensions":{"S8S_v3d_material_data":{"gtaoVisible":true,"materialIndex":0,"nodeGraph":{"edges":[{"fromNode":1,"fromOutput":0,"toInput":0,"toNode":0}],"nodes":[{"inputs":[[0,0,0,0],[0,0,0,0]],"is_active_output":true,"name":"World Output","outputs":[],"type":"OUTPUT_WORLD_BL"},{"inputs":[[0.05087608844041824,0.05087608844041824,0.05087608844041824,1.0],1.0],"is_active_output":false,"name":"Background","outputs":[[0,0,0,0]],"type":"BACKGROUND_BL"}]},"useCastShadows":true}},"name":"Verge3D_Environment_World"}],"meshes":[{"extensions":{"S8S_v3d_mesh_data":{"colorLayers":{},"uvLayers":{"UVMap":"TEXCOORD_0"}}},"name":"Circle","primitives":[{"attributes":{"NORMAL":2,"POSITION":1,"TEXCOORD_0":3},"indices":0,"material":0,"mode":4}]},{"extensions":{"S8S_v3d_mesh_data":{"colorLayers":{},"uvLayers":{"UVMap":"TEXCOORD_0"}}},"name":"Cylinder.001","primitives":[{"attributes":{"NORMAL":6,"POSITION":5,"TANGENT":7,"TEXCOORD_0":8},"indices":4,"material":2,"mode":4},{"attributes":{"NORMAL":11,"POSITION":10,"TANGENT":12,"TEXCOORD_0":13},"indices":9,"material":3,"mode":4},{"attributes":{"NORMAL":16,"POSITION":15,"TANGENT":17,"TEXCOORD_0":18},"indices":14,"material":1,"mode":4}]}],"nodes":[{"children":[7,5,9,2,11],"extensions":{"S8S_v3d_node_data":{"frustumCulling":true,"groupNames":["Collection"],"hidden":false,"hidpiCompositing":false,"objectColor":[1.0,1.0,1.0],"objectIndex":0,"renderOrder":0,"useShadows":true}},"mesh":1,"name":"Cylinder","scale":[1.2389001846313477,1.2389001846313477,1.2524513006210327],"translation":[0.0,-1.5700373649597168,-0.0]},{"extensions":{"S8S_v3d_node_data":{"frustumCulling":true,"groupNames":["Collection"],"hidden":false,"hidpiCompositing":false,"light":2,"objectColor":[1.0,1.0,1.0],"objectIndex":0,"renderOrder":0}},"name":"Spot.002","rotation":[-0.775780975818634,-0.4485599398612976,-0.03427126258611679,0.4424741566181183],"scale":[1.0,0.9999999403953552,0.9999999403953552],"translation":[-2.1785049438476562,12.797252655029297,-10.594330787658691]},{"children":[1],"name":"v3d_Proxy_Node_0_Spot.002","scale":[0.8071675896644592,0.8071675896644592,0.798434317111969],"translation":[-0.0,-0.8071675896644592,-0.0]},{"camera":0,"extensions":{"S8S_v3d_node_data":{"frustumCulling":true,"groupNames":["Collection"],"hidden":false,"hidpiCompositing":false,"objectColor":[0.0,0.0,0.0],"objectIndex":0,"renderOrder":0}},"name":"Camera","rotation":[-0.025501081719994545,-0.7131871581077576,-0.02867933362722397,0.6999223232269287],"scale":[1.000000238418579,1.0000001192092896,0.9999999403953552],"translation":[-25.707569122314453,4.619460105895996,-0.40536046028137207]},{"extensions":{"S8S_v3d_node_data":{"frustumCulling":true,"groupNames":["Collection"],"hidden":false,"hidpiCompositing":false,"light":0,"objectColor":[1.0,1.0,1.0],"objectIndex":0,"renderOrder":0}},"name":"Spot","rotation":[-0.6728736162185669,0.21735002100467682,-0.21735002100467682,0.6728736758232117],"scale":[1.0,0.9999999403953552,0.9999999403953552],"translation":[6.830295562744141,12.797252655029297,0.0]},{"children":[4],"name":"v3d_Proxy_Node_0_Spot","scale":[0.8071675896644592,0.8071675896644592,0.798434317111969],"translation":[-0.0,-0.8071675896644592,-0.0]},{"extensions":{"S8S_v3d_node_data":{"frustumCulling":true,"groupNames":["Collection"],"hidden":false,"hidpiCompositing":false,"objectColor":[1.0,1.0,1.0],"objectIndex":0,"renderOrder":0,"useShadows":true}},"mesh":0,"name":"Cap","scale":[0.4825773239135742,0.554456889629364,0.4825773239135742],"translation":[-0.0021368488669395447,5.91758394241333,-0.0]},{"children":[6],"name":"v3d_Proxy_Node_0_Cap","scale":[0.8071675896644592,0.8071675896644592,0.798434317111969],"translation":[-0.0,-0.8071675896644592,-0.0]},{"extensions":{"S8S_v3d_node_data":{"frustumCulling":true,"groupNames":["Collection"],"hidden":false,"hidpiCompositing":false,"light":1,"objectColor":[1.0,1.0,1.0],"objectIndex":0,"renderOrder":0}},"name":"Spot.001","rotation":[-0.6829991936683655,-0.18306298553943634,0.18306298553943634,0.6829992532730103],"scale":[1.0,0.9999999403953552,0.9999999403953552],"translation":[-7.209074020385742,12.797252655029297,0.0]},{"children":[8],"name":"v3d_Proxy_Node_0_Spot.001","scale":[0.8071675896644592,0.8071675896644592,0.798434317111969],"translation":[-0.0,-0.8071675896644592,-0.0]},{"extensions":{"S8S_v3d_node_data":{"frustumCulling":true,"groupNames":["Collection"],"hidden":false,"hidpiCompositing":false,"light":3,"objectColor":[1.0,1.0,1.0],"objectIndex":0,"renderOrder":0}},"name":"Spot.003","rotation":[-0.2827438712120056,0.2740822434425354,0.7232334017753601,0.5673343539237976],"scale":[1.0,0.9999998807907104,0.9999998211860657],"translation":[-2.1785049438476562,8.665191650390625,11.268396377563477]},{"children":[10],"name":"v3d_Proxy_Node_0_Spot.003","scale":[0.8071675896644592,0.8071675896644592,0.798434317111969],"translation":[-0.0,-0.8071675896644592,-0.0]}],"samplers":[{}],"scene":0,"scenes":[{"extensions":{"S8S_v3d_scene_data":{"aaMethod":"AUTO","iblEnvironmentMode":"PMREM","physicallyCorrectLights":true,"pmremMaxTileSize":512,"shadowMap":{"esmDistanceScale":1.0,"renderReverseSided":false,"renderSingleSided":true,"type":"PCFPOISSON"},"toneMapping":{"type":"filmicBlender"},"worldMaterial":4}},"extras":{"animFrameRate":24,"coordSystem":"Z_UP_RIGHT"},"name":"Scene","nodes":[3,0]}],"textures":[{"extensions":{"S8S_v3d_texture_data":{"colorSpace":"srgb"}},"name":"cokewrapper.jpg","sampler":0,"source":0}]}
